<svg width="95" height="95" viewBox="0 0 95 95" fill="none" xmlns="http://www.w3.org/2000/svg">
<path d="M38 95L95 38L88.6666 31.6667L31.6666 88.6667L38 95ZM22.1667 79.1667L79.1666 22.1667L72.8333 15.8334L15.8333 72.8334L22.1667 79.1667ZM0 57L6.33333 63.3334L63.3333 6.33339L57 5.63237e-05L0 57Z" fill="white"/>
<path d="M1.90024e-05 38L57 95L63.3333 88.6666L6.33335 31.6666L1.90024e-05 38ZM15.8333 22.1667L72.8333 79.1666L79.1666 72.8333L22.1667 15.8333L15.8333 22.1667ZM38 0L31.6667 6.33333L88.6666 63.3333L95 57L38 0Z" fill="white"/>
<circle cx="47.6318" cy="47.632" r="13.435" fill="black"/>
</svg>
