<?xml version="1.0" encoding="UTF-8"?>
<svg id="Layer_2" data-name="Layer 2" xmlns="http://www.w3.org/2000/svg" viewBox="0 0 351.75 351.75">
  <defs>
    <style>
      .cls-1 {
        fill: #fff;
      }

      .cls-2 {
        fill: none;
      }
    </style>
  </defs>
  <g id="Layer_4" data-name="Layer 4">
    <g>
      <path class="cls-2" d="m317.91,322.73c-3.8,2.97-8.21,4.8-12.76,5.48,4.78-.38,9.21-2.29,12.76-5.48Z"/>
      <path d="m240.6,165.18c0-37.36-30.4-67.76-67.76-67.76s-67.76,30.4-67.76,67.76,30.4,67.76,67.76,67.76,67.76-30.4,67.76-67.76Zm-105.23,34.5c1.11-1.14,2.94-1.17,4.08-.06,9,8.72,20.85,13.53,33.39,13.53,26.45,0,47.97-21.52,47.97-47.97,0-7.44-1.7-14.49-4.74-20.78-.7,2.46-2.11,4.67-4.21,6.29-5.71,4.4-14.32,2.81-19.23-3.56-.41-.54-.77-1.09-1.11-1.66-4.98-4.61-11.42-7.14-18.23-7.14-14.81,0-26.86,12.05-26.86,26.86s12.05,26.86,26.86,26.86,26.86-12.05,26.86-26.86c0-.23.03-.45.09-.66-1.12-.83-1.86-2.16-1.86-3.67,0-2.53,2.05-4.58,4.58-4.58s4.58,2.05,4.58,4.58c0,1.51-.74,2.83-1.86,3.66.05.21.09.43.09.66,0,17.9-14.57,32.47-32.47,32.47s-32.47-14.57-32.47-32.47,14.57-32.47,32.47-32.47c5.71,0,11.21,1.48,16.06,4.24.18-3.65,1.77-7.07,4.7-9.34,1.62-1.25,3.48-2,5.41-2.31-7.62-5.11-16.78-8.09-26.63-8.09-26.45,0-47.97,21.52-47.97,47.97,0,1.59-1.29,2.89-2.89,2.89s-2.89-1.29-2.89-2.89c0-29.63,24.11-53.74,53.74-53.74s53.74,24.11,53.74,53.74-24.11,53.74-53.74,53.74c-14.04,0-27.33-5.38-37.41-15.16-1.15-1.11-1.17-2.94-.06-4.08Zm56.19-44.34c0,5.57-4.51,10.08-10.08,10.08s-10.08-4.51-10.08-10.08,4.51-10.08,10.08-10.08,10.08,4.51,10.08,10.08Z"/>
      <path d="m103.84,302.04c-2.59,0-4.7,2.11-4.7,4.7s2.11,4.7,4.7,4.7,4.7-2.11,4.7-4.7-2.11-4.7-4.7-4.7Z"/>
      <path d="m255.03,60.59c-6.13,0-11.12,4.99-11.12,11.12s4.99,11.12,11.12,11.12,11.12-4.99,11.12-11.12-4.99-11.12-11.12-11.12Z"/>
      <path d="m309.1,159.09c3.47,0,6.3-2.82,6.3-6.3s-2.82-6.3-6.3-6.3-6.3,2.82-6.3,6.3,2.83,6.3,6.3,6.3Z"/>
      <path d="m310.12,124.75c2.14,0,3.87-1.74,3.87-3.87s-1.74-3.87-3.87-3.87-3.87,1.74-3.87,3.87,1.74,3.87,3.87,3.87Z"/>
      <path d="m285.75,85.37c0,2.39,1.94,4.33,4.33,4.33s4.33-1.94,4.33-4.33-1.94-4.33-4.33-4.33-4.33,1.94-4.33,4.33Z"/>
      <path d="m210.03,321.72c0,2.59,2.11,4.7,4.7,4.7s4.7-2.11,4.7-4.7-2.11-4.7-4.7-4.7-4.7,2.11-4.7,4.7Z"/>
      <path d="m196.14,261.56v54.42c0,3.16-2.56,5.72-5.72,5.72s-5.72-2.56-5.72-5.72v-59.59c0-3.41,2.77-6.2,6.18-6.22l27.26-.22c1.74-.01,3.39.7,4.58,1.95l65.24,70.1c4.1,4.06,9.55,6.29,15.37,6.29.61,0,1.2-.04,1.8-.09,4.56-.68,8.97-2.51,12.76-5.48.29-.26.6-.51.88-.79l.68-.68c8.71-8.71,8.71-22.88,0-31.6l-65.08-65.08c-2.23-2.23-2.23-5.85,0-8.09,2.23-2.23,5.85-2.23,8.09,0l7.19,7.19,10.45-8.86h51.67c3.23,0,5.84,2.61,5.84,5.84s-2.61,5.84-5.84,5.84h-47.39l-6.45,5.47,43.14,43.14c19.34-28.24,30.66-62.41,30.66-99.23C351.75,78.74,273.01,0,175.87,0S0,78.74,0,175.87c0,88.83,65.86,162.26,151.4,174.17v-89.61s-.06-.01-.09-.02c-.87-.2-1.65-.58-2.32-1.09-20.19-5.11-38.47-16.77-51.66-33.07-13.93-17.2-21.6-38.89-21.6-61.07,0-53.55,43.56-97.11,97.11-97.11s97.11,43.56,97.11,97.11c0,3.04-2.46,5.5-5.5,5.5s-5.5-2.46-5.5-5.5c0-47.48-38.63-86.11-86.11-86.11s-86.11,38.63-86.11,86.11c0,39.16,27.17,73.89,64.91,83.46.75-.13,1.53-.12,2.31.06,1.18.27,2.39.51,3.6.73,3.13.56,5.24,3.46,4.89,6.57.01.15.04.29.04.45v94.79c2.36.18,4.73.3,7.11.38v-111.76c-39.79-1.7-71.52-34.48-71.52-74.68s33.47-74.76,74.76-74.76,74.76,33.47,74.76,74.76-30.64,71.82-69.44,74.55v111.99c34.99-.45,67.51-11.11,94.73-29.15l-56.93-61.17-19.8.16Zm131.97-17.48h-24.76c-2.28,0-4.13-1.85-4.13-4.13s1.85-4.13,4.13-4.13h24.76c2.28,0,4.13,1.85,4.13,4.13s-1.85,4.13-4.13,4.13Zm.67-41.47h-.35c-1.49,0-2.69-1.21-2.69-2.69s1.21-2.69,2.69-2.69h.35c1.49,0,2.69,1.21,2.69,2.69s-1.21,2.69-2.69,2.69Zm-3.32-76.3c1.51-.44,3.09.44,3.52,1.95,3.75,13.02,5.64,26.53,5.64,40.17,0,1.57-1.27,2.85-2.85,2.85s-2.85-1.27-2.85-2.85c0-13.11-1.82-26.1-5.42-38.6-.43-1.51.44-3.09,1.95-3.52Zm-16.84-35.84c1.33-.83,3.09-.42,3.92.91,2.48,3.98,4.8,8.12,6.88,12.3.7,1.41.13,3.12-1.28,3.82-.41.2-.84.3-1.27.3-1.05,0-2.05-.58-2.55-1.58-2-4.02-4.22-8-6.61-11.83-.83-1.33-.42-3.09.91-3.92Zm1.51,22.42c4.41,0,7.99,3.59,7.99,7.99s-3.59,7.99-7.99,7.99-7.99-3.59-7.99-7.99,3.59-7.99,7.99-7.99Zm-1.03,26.91c7.17,0,13,5.83,13,13s-5.83,13-13,13-13-5.83-13-13,5.83-13,13-13Zm4.35,44.12c0,1.49-1.21,2.69-2.69,2.69h-12.12c-1.49,0-2.69-1.21-2.69-2.69s1.21-2.69,2.69-2.69h12.12c1.49,0,2.69,1.21,2.69,2.69Zm-14.42-98.55c0,4.93-4.01,8.94-8.94,8.94s-8.94-4.01-8.94-8.94,4.01-8.94,8.94-8.94,8.94,4.01,8.94,8.94Zm-8.94,29.61c2.49,0,4.51,2.02,4.51,4.51s-2.02,4.51-4.51,4.51-4.51-2.02-4.51-4.51,2.02-4.51,4.51-4.51Zm-8.46-4.84c-2.49,0-4.51-2.02-4.51-4.51s2.02-4.51,4.51-4.51,4.51,2.02,4.51,4.51-2.02,4.51-4.51,4.51Zm-22.19-66.64c.83-1.34,2.58-1.75,3.92-.93,9.67,5.97,18.67,13,26.76,20.91,1.12,1.1,1.14,2.9.04,4.02-.56.57-1.3.86-2.03.86s-1.44-.27-1.99-.81c-7.78-7.61-16.45-14.39-25.76-20.13-1.34-.83-1.75-2.58-.93-3.92Zm-69.05-23.81c21.02,1.21,41.18,6.48,59.91,15.67,1.41.69,1.99,2.4,1.3,3.81-.49,1.01-1.51,1.59-2.56,1.59-.42,0-.85-.09-1.25-.29-18.05-8.85-37.47-13.93-57.73-15.1-1.57-.09-2.77-1.44-2.68-3,.09-1.57,1.42-2.75,3-2.68Zm-44.69,6.46c.06-4.48,2.22-6.66,6.29-6.55,2.63.07,4.77,2.22,5.33,5.37.06,2.24.11,4.5.17,6.75.02,2.11.04,4.22.06,6.33,0,0,0,.03,0,.03-.02,1.02-.04,2.05-.06,3.07,0,0-.12.03-.12.03l.09.09c-.83,2.28-2.04,4.1-4.79,4.25-2.83.16-5.24-.45-6.66-3.22-.24-.46-.3-.89-.3-1.35-.01-4.93-.07-9.86,0-14.8Zm-19.36,4.25c.74-3.01,2.69-3.99,7.11-3.57,2.05.19,3.02,1.3,2.83,3.37.17,4.47.35,8.95.52,13.43-1.45,4.12-5.28,4.65-8.39,2.83-1.49-.87-1.93-2.19-2.04-3.74.14-1.48.2-2.98-.05-4.47-.02-1.04-.05-2.07-.07-3.1.03-1.57.07-3.16.1-4.74ZM62.12,191.57c3.18.33,2.81,5.99-.75,5.66-3.94-.26-4.14-6.19.75-5.66Zm-3.78-10.62c-12.54-.04-25.08,0-37.63-.01-2.84,0-3.84-.88-3.9-3.02-.05-1.97.93-2.68,2.77-2.67,6.54.03,13.12,0,19.65.02,6.31,0,12.62.04,18.93-.02,2.11-.02,3.26.49,3.25,2.93,0,2.33-1.07,2.8-3.09,2.79Zm7.47,70.06c.6,1.05,1.05,2.41-.08,3.26-1.07.81-2.06-.06-2.91-.87-4.33-4.12-6.92-9.45-10.04-14.41-.86-1.36-2.27-3.67-3.71-7.5-.96-2.79-1.96-5.57-2.84-8.39-.32-1.04-.52-2.26.12-3.21,1.2-2.09,4.33-2,4.58.79.64,3.96,2.04,7.68,3.83,11.26,3.69,6.35,7.39,12.7,11.05,19.07Zm.45-112.88c-.68,2.73-1.88,5.29-2.45,8.03-.3,1.44-1.26,1.14-2.16,1.18-2.67-.05-3.34-.96-2.61-3.45.72-2.45,1.12-4.97,1.93-7.41.5-1.51,1.61-1.93,2.41-1.34,1.04.77,3.59.15,2.89,2.97Zm-7.23-37.99c0-2.49,2.02-4.51,4.51-4.51s4.51,2.02,4.51,4.51-2.02,4.51-4.51,4.51-4.51-2.02-4.51-4.51Zm.09,15.09c0,2.6-2.1,4.7-4.7,4.7s-4.7-2.1-4.7-4.7,2.1-4.7,4.7-4.7,4.7,2.1,4.7,4.7Zm-11.74,24.11c-3.89,0-7.04-3.15-7.04-7.04s3.15-7.04,7.04-7.04,7.04,3.15,7.04,7.04-3.15,7.04-7.04,7.04Zm-3.04,10.39c-1.22-.23-2.19-1.15-2.07-2.48.16-1.86,1.43-2.51,3.04-2.25,4.42-.2,2.74,5.33-.96,4.73Zm.38-58.18c.72-1.33,1.41-2.77,3.16-2.2,3.78.1,5.56,3.16,3.81,6.26-.73,1.29-1.59,2.53-2.54,3.66-.83.98-1.83,1.21-3.03.28-4.91-3.78-4.33-2.65-1.41-8.01Zm-13.6,24.76c1.66-3.23,3.33-6.45,5.04-9.65,1.29-2.57,3.26-.02,5.02.66,1.77.9,1.79,2.11.95,3.75-1.4,2.71-2.62,5.52-3.93,8.28-.41.87-.79,1.85-2.14,1.46-1.7-.34-3.23-1.2-4.7-2.12-.89-.56-.66-1.54-.23-2.37Zm-7.04,14.83q1.58-3.63,5.31-2.64c3.01.72,5.9,1.36,4.59,5.14-.5,1.57-1.71,1.57-2.93,1.32-1.81-.2-3.53-.32-5.23-.59-2.2-.34-2.63-1.2-1.74-3.23Zm-2.63,12.9c2.78.56,5.53-.03,8.31.02.23.28.48.28.74.04,1.89.73,1.06,2.29.89,3.47-.17,1.23-1.29,1.4-2.43,1.35-2.07-.09-4.16-.01-6.22-.16-.92-.06-2.51.73-2.65-.65-.15-1.35-.51-3.21,1.36-4.07Zm-4.64,17.56c.46-1.93,1.99-2.22,3.7-2.23,12.77,0,25.53-.04,38.3-.06,1.21,0,2.66-.02,2.88,1.41.24,1.59.85,3.53-1.25,4.58-13.74-.35-27.49-.18-41.23,0-1.84-.56-2.87-1.7-2.4-3.7Zm.05,31.64c.4-1.57,1.63-2.13,3.27-2.12,9.19.05,18.38.02,27.57.06,2.39,0,3.05,2.31,1.56,5.29-10-.02-20.01-.03-30.02-.05-1.62-.45-2.86-1.3-2.38-3.18Zm65.64,100.56c-.87.96-1.64-.02-2.29-.38-1.49-.83-2.87-1.84-4.29-2.78-13.3-10.66-29.46-33.62-31.37-36.86-6.86-12.17-14.16-27.55-16.6-41.74-.87-4.08-.38-6.87,5.39-6.73,8.38.19,16.77.03,25.16.08,1.35,0,3.23-.64,3.55,1.53.21,1.37-1.97,3.15-3.81,3.19-7.58.02-15.18.2-22.76.02-2.16-.08-3.49.97-2.78,3.47,2.36,7.96,4.98,15.86,8.44,23.41,8.01,17.24,19.08,33.32,33.37,45.94,2.41,2.05,4.7,4.25,7,6.43.5.47,1.03,1.07,1.21,1.7.25.88.49,1.92-.23,2.71Zm4.39-13.08c-1.46-1.08-3.01-2.06-4.32-3.3-3.99-3.74-8.21-7.26-11.61-11.59-.91-1.16-1.84-2.47-.08-3.83,1.51-1.16,3.23-1.09,4.6.6,4.35,5.39,9.41,10.13,14,15.3.31.35.79.55.84,1.13-.2,1.48-2.08,2.66-3.42,1.68Zm16.95,35.72c-5.35,0-9.7-4.35-9.7-9.7s4.35-9.7,9.7-9.7,9.7,4.35,9.7,9.7-4.35,9.7-9.7,9.7Zm-24.39-88.73c8.87,10.28,18.37,20.17,29.86,27.53,5.66,3.88,11.87,6.74,18.19,9.28,3.04,1.22,6.31,1.99,9.39,3.19,1.53.59,3.56.87,3.1,3.36-.18.99-.44,1.62-1.81,1.42-4.66-.66-9.03-2.35-13.33-4.03-19.08-7.26-33.93-19.67-46.69-35.32-1.13-1.44-2.73-3.49-4.64-2-1.4,1.06-1.6,2.55-.58,4,1.31,1.86,2.65,3.71,4.13,5.43,4.89,5.66,9.43,11.66,15.22,16.49,7.2,6.02,14.92,11.26,23.54,14.99,6.23,2.69,12.37,5.7,19.06,7.22,1.29.29,2.49.94,3.74,1.4.8.29.38.91.41,1.41.49,3.08.14,3.31-2.81,2.72-11.92-2.36-22.84-7.28-33.16-13.47-16.33-10.01-24.63-20.85-30.04-27.64-2.61-3.38-5.68-6.57-5.4-11.36.12-2.06,2.68-6.6,4.22-6.82,2.78-.39,5.51-.2,7.59,2.19Zm14.98-137.2c-5.53,6.58-11.43,12.89-15.94,20.27-2.71,4.43-5.02,9.08-7.08,13.86-.47,1.1-.94,2.2-2.44,2.08-2.78,0-4.13-1.71-3.11-4.21,5.39-12.83,13.69-24.18,22.72-34.63.54-.66,1.12-1.33,1.81-1.8.91-.62,1.42-2.67,3.14-.77,2.22,2.45,2.46,3.34.89,5.21Zm-26.04-3.6c0-2.49,2.02-4.51,4.51-4.51s4.51,2.02,4.51,4.51-2.02,4.51-4.51,4.51-4.51-2.02-4.51-4.51Zm9.84-12.44c0-2.49,2.02-4.51,4.51-4.51s4.51,2.02,4.51,4.51-2.02,4.51-4.51,4.51-4.51-2.02-4.51-4.51Zm9.72-21.12c-9.79,7.55-18.9,15.91-26.58,25.67-1.59,2.02-2.8,1.38-4.37.25-1.78-1.29-1.5-2.39-.27-4.05,5.52-7.45,12.03-13.89,18.99-19.96,8.23-7.17,17.57-12.55,27.21-17.47,3.03-1.55,6.14-2.93,9.28-4.24,2.97-1.24,5.04-.22,5.11,2.37.37,1.6-1.06,1.88-2,2.35-4.25,2.14-8.65,4.01-12.81,6.3-4.97,2.73-10.11,5.35-14.57,8.79Zm69.05,4.61c-5.85.15-11.33,2.03-16.9,3.51-11.16,2.95-21.06,8.48-30.47,15-.58.4-1.26.7-1.77,1.18-1.59,1.51-2.95,1.18-4.17-.44-1.21-1.61-.95-3.01,1.02-4.38,5.56-3.87,11.25-7.49,17.33-10.55,7.42-3.75,15.21-6.36,23.22-8.39,3.79-.96,7.69-1.23,11.04-1.67,3.16,0,3.65.57,3.77,3.14.1,2.3-1.34,2.56-3.06,2.61Zm15.52.96c-3.72,0-6.73-3.01-6.73-6.73s3.01-6.73,6.73-6.73,6.73,3.01,6.73,6.73-3.01,6.73-6.73,6.73Zm4.82-21.56c.05,1.1-.36,1.55-1.51,1.54-2.29-.04-4.59.05-6.88.09-1.13.02-1.83-.37-1.68-1.66.1-.86.17-1.72.26-2.59,0,0,.02.11.02.11l.07-.08c.33-.18.66-.35.98-.53,2.7-.01,5.41-.03,8.13-.05.82.94.57,2.07.62,3.17Zm-4.82-9.11c-3.72,0-6.73-3.01-6.73-6.73s3.01-6.73,6.73-6.73,6.73,3.01,6.73,6.73-3.01,6.73-6.73,6.73Zm18.37,5.64c4.59-.11,6.31,1.66,6.51,5.6.18,3.32-2.73,5.78-6.14,6.07-3.54.31-6.04-3.3-6.14-5.9-.14-3.63,2.18-5.75,5.76-5.77Zm33.95,31.98c-1.1,1.39-1.95,3.45-4.19,2.48-2.07-.9-4.12-1.95-6.09-3-1.83-.98-3.73-1.66-5.62-2.39-2.68-1.04-5.45-1.86-8.22-2.59-4.04-1.06-8.1-2.04-12.19-2.85-1.22-.24-2.5-.28-2.01-1.79.39-1.2-.34-3.76,2.53-3.04.3.08.64.01,1.62.01,3.33.32,7.19,1.37,11.11,2.13,4.23.83,8.13,2.65,12.25,3.78,3.5.96,6.7,3,9.99,4.66,1.01.51,1.85,1.28.82,2.6Zm9.34-13.64c-.77,1.23-2.15,2.3-3.71,1.57-7.31-3.41-14.71-6.56-22.47-8.83-1.3-.38-2.44-1.08-1.91-2.72.39-1.21.59-2.76,2.53-2.54,3.46.84,6.84,2.01,10.18,3.28,4.78,1.83,9.29,4.24,13.92,6.39,1.33.62,2.32,1.45,1.45,2.84Zm4.69,19.46c0-8.93,7.26-16.19,16.19-16.19s16.19,7.26,16.19,16.19-7.26,16.19-16.19,16.19-16.19-7.26-16.19-16.19Zm24.87,42.64c-1.13-1.21-1.08-3.1.12-4.24,1.2-1.13,3.09-1.09,4.23.11.68.71,16.55,17.83,16.55,56.65,0,1.66-1.34,3-3,3s-3-1.34-3-3c0-36.21-14.76-52.36-14.91-52.52Zm-.91,66.68h16.24c1.59,0,2.89,1.29,2.89,2.89s-1.29,2.89-2.89,2.89h-16.24c-1.59,0-2.89-1.29-2.89-2.89s1.29-2.89,2.89-2.89Zm-2.1,15.6h52.74c1.59,0,2.89,1.29,2.89,2.89s-1.29,2.89-2.89,2.89h-52.74c-1.59,0-2.89-1.29-2.89-2.89s1.29-2.89,2.89-2.89Zm42.45,116.48c-.59.59-1.35.88-2.12.88s-1.54-.29-2.12-.88l-60.21-60.21c-1.17-1.17-1.17-3.07,0-4.24,1.17-1.17,3.07-1.17,4.24,0l60.21,60.21c1.17,1.17,1.17,3.07,0,4.24Zm-64.67-85.03c1.17-1.17,3.07-1.17,4.24,0l70.15,70.15c1.17,1.17,1.17,3.07,0,4.24-.59.59-1.35.88-2.12.88s-1.54-.29-2.12-.88l-70.15-70.15c-1.17-1.17-1.17-3.07,0-4.24Zm-14.05,93.65c0,5.35-4.35,9.7-9.7,9.7s-9.7-4.35-9.7-9.7,4.35-9.7,9.7-9.7,9.7,4.35,9.7,9.7Z"/>
      <path class="cls-1" d="m171.33,237.09h5.08c.96,0,1.74.78,1.74,1.74v.91c38.8-2.73,69.44-35.05,69.44-74.55s-33.47-74.76-74.76-74.76-74.76,33.47-74.76,74.76,31.74,72.98,71.52,74.68v-1.04c0-.96.78-1.74,1.74-1.74Zm-66.26-71.91c0-37.36,30.4-67.76,67.76-67.76s67.76,30.4,67.76,67.76-30.4,67.76-67.76,67.76-67.76-30.4-67.76-67.76Z"/>
      <path class="cls-1" d="m81.52,289.38c-2.3-2.18-4.58-4.38-7-6.43-14.29-12.62-25.36-28.7-33.37-45.94-3.47-7.55-6.09-15.46-8.44-23.41-.72-2.5.62-3.55,2.78-3.47,7.58.18,15.18,0,22.76-.02,1.83-.05,4.01-1.82,3.81-3.19-.33-2.18-2.21-1.53-3.55-1.53-8.39-.05-16.77.11-25.16-.08-5.77-.13-6.26,2.65-5.39,6.73,2.44,14.19,9.74,29.57,16.6,41.74,1.9,3.24,18.07,26.2,31.37,36.86,1.42.94,2.8,1.95,4.29,2.78.66.37,1.42,1.34,2.29.38.72-.79.48-1.84.23-2.71-.18-.63-.71-1.22-1.21-1.7Z"/>
      <path class="cls-1" d="m90.4,86.08c-.69.47-1.28,1.14-1.81,1.8-9.04,10.46-17.34,21.81-22.72,34.63-1.03,2.5.33,4.21,3.11,4.21,1.5.12,1.97-.98,2.44-2.08,2.05-4.78,4.37-9.43,7.08-13.86,4.51-7.38,10.41-13.68,15.94-20.27,1.57-1.87,1.33-2.76-.89-5.21-1.72-1.9-2.23.15-3.14.77Z"/>
      <path class="cls-1" d="m19.2,165.29c13.75-.19,27.49-.36,41.23,0,2.1-1.05,1.49-2.99,1.25-4.58-.22-1.43-1.67-1.41-2.88-1.41-12.77.03-25.53.06-38.3.06-1.71,0-3.24.29-3.7,2.23-.48,2,.56,3.14,2.4,3.7Z"/>
      <path class="cls-1" d="m61.43,178.15c0-2.44-1.15-2.95-3.25-2.93-6.31.07-12.62.02-18.93.02-6.53-.02-13.11.01-19.65-.02-1.84,0-2.82.7-2.77,2.67.06,2.15,1.06,3.02,3.9,3.02,12.54.01,25.08-.03,37.63.01,2.02,0,3.09-.46,3.09-2.79Z"/>
      <path class="cls-1" d="m47.69,191.17c-9.19-.03-18.38,0-27.57-.06-1.64,0-2.87.55-3.27,2.12-.48,1.88.76,2.73,2.38,3.18,10.01.01,20.02.03,30.02.05,1.49-2.99.83-5.28-1.56-5.29Z"/>
      <path class="cls-1" d="m71.86,225.52c-1.54.21-4.1,4.76-4.22,6.82-.28,4.79,2.79,7.98,5.4,11.36,5.4,6.79,13.7,17.63,30.04,27.64,10.32,6.18,21.23,11.11,33.16,13.47,2.95.58,3.3.35,2.81-2.72-.04-.5.39-1.12-.41-1.41-1.25-.46-2.45-1.11-3.74-1.4-6.69-1.52-12.83-4.53-19.06-7.22-8.62-3.72-16.34-8.97-23.54-14.99-5.79-4.84-10.33-10.83-15.22-16.49-1.48-1.72-2.82-3.57-4.13-5.43-1.02-1.45-.81-2.94.58-4,1.91-1.5,3.51.56,4.64,2,12.77,15.65,27.62,28.06,46.69,35.32,4.3,1.68,8.67,3.37,13.33,4.03,1.37.19,1.63-.44,1.81-1.42.46-2.49-1.57-2.77-3.1-3.36-3.08-1.2-6.35-1.97-9.39-3.19-6.32-2.53-12.53-5.39-18.19-9.28-11.49-7.36-21-17.25-29.86-27.53-2.08-2.39-4.8-2.57-7.59-2.19Z"/>
      <path class="cls-1" d="m89.47,277.9c-4.59-5.17-9.65-9.91-14-15.3-1.37-1.7-3.09-1.77-4.6-.6-1.75,1.36-.83,2.66.08,3.83,3.39,4.33,7.62,7.85,11.61,11.59,1.31,1.23,2.87,2.21,4.32,3.3,1.33.98,3.21-.2,3.42-1.68-.04-.58-.53-.78-.84-1.13Z"/>
      <path class="cls-1" d="m31.35,118.67c1.47.92,3,1.78,4.7,2.12,1.35.39,1.72-.59,2.14-1.46,1.31-2.76,2.53-5.56,3.93-8.28.85-1.64.83-2.85-.95-3.75-1.76-.67-3.73-3.23-5.02-.66-1.71,3.2-3.37,6.43-5.04,9.65-.42.82-.66,1.8.23,2.37Z"/>
      <path class="cls-1" d="m46.13,99.55c1.2.93,2.2.7,3.03-.28.95-1.13,1.81-2.37,2.54-3.66,1.75-3.11-.04-6.16-3.81-6.26-1.75-.58-2.44.87-3.16,2.2-2.93,5.36-3.5,4.23,1.41,8.01Z"/>
      <path class="cls-1" d="m50.93,220.68c-.24-2.79-3.38-2.88-4.58-.79-.64.95-.44,2.17-.12,3.21.88,2.82,1.88,5.6,2.84,8.39,1.44,3.83,2.85,6.14,3.71,7.5,3.13,4.96,5.71,10.29,10.04,14.41.85.81,1.84,1.68,2.91.87,1.13-.86.68-2.21.08-3.26-3.66-6.37-7.36-12.71-11.05-19.07-1.79-3.58-3.19-7.3-3.83-11.26Z"/>
      <path class="cls-1" d="m63.37,135.15c-.8-.6-1.91-.17-2.41,1.34-.81,2.44-1.21,4.96-1.93,7.41-.73,2.48-.06,3.4,2.61,3.45.91-.05,1.86.25,2.16-1.18.58-2.74,1.77-5.3,2.45-8.03.7-2.83-1.84-2.2-2.89-2.97Z"/>
      <path class="cls-1" d="m25.81,134.37c1.7.26,3.43.39,5.23.59,1.22.25,2.43.24,2.93-1.32,1.3-3.78-1.58-4.42-4.59-5.14q-3.72-.98-5.31,2.64c-.89,2.03-.46,2.89,1.74,3.23Z"/>
      <path class="cls-1" d="m22.74,148.75c2.07.15,4.15.07,6.22.16,1.14.05,2.25-.12,2.43-1.35.17-1.18,1-2.74-.89-3.47-.26.24-.51.23-.74-.04-2.78-.05-5.53.54-8.31-.02-1.87.86-1.51,2.72-1.36,4.07.15,1.38,1.73.59,2.65.65Z"/>
      <path class="cls-1" d="m61.37,197.22c3.56.33,3.93-5.32.75-5.66-4.9-.54-4.69,5.4-.75,5.66Z"/>
      <path class="cls-1" d="m42.27,147.24c-.11,1.33.85,2.26,2.07,2.48,3.71.6,5.38-4.93.96-4.73-1.61-.26-2.88.39-3.04,2.25Z"/>
      <path class="cls-1" d="m117.32,35.91c-.07-2.59-2.14-3.61-5.11-2.37-3.14,1.31-6.25,2.7-9.28,4.24-9.64,4.92-18.98,10.3-27.21,17.47-6.97,6.07-13.48,12.51-18.99,19.96-1.24,1.67-1.51,2.76.27,4.05,1.56,1.14,2.78,1.77,4.37-.25,7.68-9.76,16.79-18.12,26.58-25.67,4.47-3.44,9.6-6.06,14.57-8.79,4.17-2.29,8.56-4.16,12.81-6.3.93-.47,2.37-.75,2-2.35Z"/>
      <path class="cls-1" d="m156.28,52.22c-3.35.45-7.24.71-11.04,1.67-8.01,2.04-15.8,4.65-23.22,8.39-6.07,3.06-11.77,6.68-17.33,10.55-1.97,1.37-2.23,2.77-1.02,4.38,1.22,1.62,2.58,1.94,4.17.44.51-.48,1.19-.78,1.77-1.18,9.41-6.52,19.31-12.05,30.47-15,5.57-1.47,11.06-3.36,16.9-3.51,1.72-.04,3.16-.3,3.06-2.61-.12-2.57-.61-3.13-3.77-3.14Z"/>
      <path class="cls-1" d="m145.99,42.3c1.42,2.77,3.82,3.38,6.66,3.22,2.75-.15,3.96-1.97,4.79-4.25l-.09-.09s.12-.03.12-.03c.02-1.02.04-2.05.06-3.07,0,0,0-.03,0-.03-.02-2.11-.04-4.22-.06-6.33-.06-2.25-.11-4.5-.17-6.75-.56-3.15-2.69-5.31-5.33-5.37-4.07-.1-6.23,2.07-6.29,6.55-.07,4.93-.01,9.86,0,14.8,0,.46.07.9.3,1.35Z"/>
      <path class="cls-1" d="m224,63.29c-3.29-1.66-6.5-3.7-9.99-4.66-4.13-1.13-8.02-2.95-12.25-3.78-3.92-.77-7.78-1.81-11.11-2.13-.99,0-1.32.07-1.62-.01-2.87-.72-2.14,1.84-2.53,3.04-.49,1.51.79,1.55,2.01,1.79,4.09.81,8.15,1.8,12.19,2.85,2.78.73,5.55,1.56,8.22,2.59,1.88.73,3.79,1.41,5.62,2.39,1.97,1.05,4.02,2.1,6.09,3,2.24.97,3.09-1.08,4.19-2.48,1.04-1.32.19-2.09-.82-2.6Z"/>
      <path class="cls-1" d="m126.34,42.71c.12,1.55.55,2.87,2.04,3.74,3.11,1.83,6.94,1.29,8.39-2.83-.17-4.48-.35-8.96-.52-13.43.19-2.07-.78-3.18-2.83-3.37-4.41-.42-6.36.57-7.11,3.57-.03,1.59-.07,3.17-.1,4.74.02,1.03.05,2.06.07,3.1.25,1.49.19,2.99.05,4.47Z"/>
      <path class="cls-1" d="m232.71,49.41c-4.63-2.15-9.14-4.56-13.92-6.39-3.34-1.28-6.72-2.44-10.18-3.28-1.94-.22-2.15,1.34-2.53,2.54-.52,1.63.61,2.34,1.91,2.72,7.76,2.27,15.16,5.41,22.47,8.83,1.55.73,2.94-.34,3.71-1.57.87-1.4-.12-2.22-1.45-2.84Z"/>
      <path class="cls-1" d="m191.24,45.58c3.41-.3,6.32-2.76,6.14-6.07-.21-3.94-1.93-5.71-6.51-5.6-3.58.02-5.9,2.14-5.76,5.77.1,2.6,2.6,6.21,6.14,5.9Z"/>
      <path class="cls-1" d="m176.7,34.2c-2.71.02-5.43.04-8.13.05-.32.17-.65.35-.98.53l-.07.08s-.02-.11-.02-.11c-.09.86-.16,1.73-.26,2.59-.16,1.29.54,1.68,1.68,1.66,2.29-.04,4.59-.13,6.88-.09,1.15.02,1.56-.44,1.51-1.54-.05-1.09.2-2.23-.62-3.17Z"/>
      <path class="cls-1" d="m54.42,132.3c0-3.89-3.15-7.04-7.04-7.04s-7.04,3.15-7.04,7.04,3.15,7.04,7.04,7.04,7.04-3.15,7.04-7.04Zm-12.65-.02c.02-3.43,1.88-5.02,5.87-5,3.72.02,5.58,1.86,5.55,5.5-.29,7.68-11.33,6.86-11.42-.5Z"/>
      <path class="cls-1" d="m47.65,127.28c-3.99-.02-5.85,1.57-5.87,5,.09,7.36,11.13,8.18,11.42.5.03-3.64-1.83-5.48-5.55-5.5Z"/>
      <path class="cls-1" d="m54.42,110.53c-2.6,0-4.7,2.1-4.7,4.7s2.1,4.7,4.7,4.7,4.7-2.1,4.7-4.7-2.1-4.7-4.7-4.7Zm.18,8.96c-2.08.08-4.64-2.34-4.69-4.41-.05-2.16,2.07-4.07,4.56-4.1,2.76-.04,4.46,1.62,4.47,4.37,0,2.09-2.06,4.06-4.34,4.15Z"/>
      <path class="cls-1" d="m54.47,110.97c-2.5.04-4.61,1.94-4.56,4.1.05,2.08,2.61,4.49,4.69,4.41,2.29-.09,4.35-2.06,4.34-4.15-.01-2.75-1.71-4.41-4.47-4.37Z"/>
      <path class="cls-1" d="m68.05,100.14c0-2.49-2.02-4.51-4.51-4.51s-4.51,2.02-4.51,4.51,2.02,4.51,4.51,4.51,4.51-2.02,4.51-4.51Zm-4.48,4.04c-5.19.03-5.47-8.04-.21-8.08,5.53-.21,5.54,8.06.21,8.08Z"/>
      <path class="cls-1" d="m63.36,96.1c-5.26.05-4.98,8.11.21,8.08,5.33-.02,5.31-8.29-.21-8.08Z"/>
      <path class="cls-1" d="m77.4,86.91c0-2.49-2.02-4.51-4.51-4.51s-4.51,2.02-4.51,4.51,2.02,4.51,4.51,4.51,4.51-2.02,4.51-4.51Zm-8.29-.19c0-2.58,1.14-3.61,4-3.6,2.37.01,3.59,1.26,3.56,3.67-.09,4.91-7.68,5.53-7.56-.07Z"/>
      <path class="cls-1" d="m76.67,86.79c.02-2.4-1.19-3.66-3.56-3.67-2.86-.01-4.01,1.02-4,3.6-.11,5.6,7.48,4.98,7.56.07Z"/>
      <path class="cls-1" d="m87.24,74.47c0-2.49-2.02-4.51-4.51-4.51s-4.51,2.02-4.51,4.51,2.02,4.51,4.51,4.51,4.51-2.02,4.51-4.51Zm-8.06-.15c.03-2.16,1.18-3.17,3.62-3.15,5.03-.28,4.28,6.6-.12,6.62-2.21-.03-3.53-1.34-3.51-3.47Z"/>
      <path class="cls-1" d="m82.8,71.16c-2.44-.01-3.6.99-3.62,3.15-.02,2.13,1.3,3.44,3.51,3.47,4.4-.03,5.15-6.9.12-6.62Z"/>
      <path class="cls-1" d="m281.62,169.87c1.66,0,3-1.34,3-3,0-38.82-15.88-55.94-16.55-56.65-1.14-1.2-3.03-1.24-4.23-.11-1.2,1.13-1.25,3.03-.12,4.24.15.16,14.91,16.31,14.91,52.52,0,1.66,1.34,3,3,3Z"/>
      <circle class="cls-1" cx="281.62" cy="105.62" r="4.51" transform="translate(7.8 230.07) rotate(-45)"/>
      <circle class="cls-1" cx="290.08" cy="119.49" r="4.51"/>
      <path class="cls-1" d="m328.94,168.43c0,1.57,1.27,2.85,2.85,2.85s2.85-1.27,2.85-2.85c0-13.64-1.9-27.16-5.64-40.17-.43-1.51-2.01-2.38-3.52-1.95-1.51.43-2.38,2.01-1.95,3.52,3.6,12.5,5.42,25.49,5.42,38.6Z"/>
      <path class="cls-1" d="m314.32,106.21c.5,1,1.5,1.58,2.55,1.58.43,0,.86-.1,1.27-.3,1.41-.7,1.98-2.41,1.28-3.82-2.08-4.18-4.4-8.32-6.88-12.3-.83-1.33-2.59-1.74-3.92-.91-1.33.83-1.74,2.59-.91,3.92,2.39,3.83,4.61,7.81,6.61,11.83Z"/>
      <path class="cls-1" d="m260.35,47.42c9.31,5.74,17.98,12.52,25.76,20.13.55.54,1.27.81,1.99.81s1.48-.29,2.03-.86c1.1-1.12,1.08-2.93-.04-4.02-8.08-7.91-17.09-14.94-26.76-20.91-1.34-.82-3.09-.41-3.92.93-.83,1.34-.41,3.09.93,3.92Z"/>
      <path class="cls-1" d="m190.05,25.37c20.26,1.17,39.68,6.25,57.73,15.1.4.2.83.29,1.25.29,1.05,0,2.06-.59,2.56-1.59.69-1.41.11-3.12-1.3-3.81-18.73-9.19-38.89-14.46-59.91-15.67-1.58-.08-2.91,1.11-3,2.68-.09,1.57,1.11,2.91,2.68,3Z"/>
      <path class="cls-1" d="m172.5,45.46c-3.72,0-6.73,3.01-6.73,6.73s3.01,6.73,6.73,6.73,6.73-3.01,6.73-6.73-3.01-6.73-6.73-6.73Zm.18,12.42c-3.57-.29-5.63-2.67-5.49-5.56.16-3.35,2.22-5.38,5.77-5.35,2.91.02,5.27,2.11,5.26,4.66-.02,3.13-2.87,6.48-5.55,6.26Z"/>
      <path class="cls-1" d="m172.96,46.97c-3.55-.03-5.61,2.01-5.77,5.35-.14,2.89,1.91,5.27,5.49,5.56,2.68.22,5.53-3.13,5.55-6.26.01-2.54-2.35-4.64-5.26-4.66Z"/>
      <path class="cls-1" d="m172.5,14.8c-3.72,0-6.73,3.01-6.73,6.73s3.01,6.73,6.73,6.73,6.73-3.01,6.73-6.73-3.01-6.73-6.73-6.73Zm-.41,11.95c-2.46-.05-4.39-2.07-4.37-4.58.02-2.7,2.21-4.57,5.25-4.5,2.97.07,4.34,1.56,4.3,4.69-.03,2.67-2.14,4.46-5.18,4.39Z"/>
      <path class="cls-1" d="m172.98,17.67c-3.04-.07-5.23,1.81-5.25,4.5-.02,2.51,1.91,4.53,4.37,4.58,3.04.07,5.15-1.72,5.18-4.39.04-3.13-1.33-4.62-4.3-4.69Z"/>
      <path class="cls-1" d="m172.83,239.94c-1.09,0-2.16-.04-3.24-.08v111.76c2.09.07,4.18.12,6.28.12.76,0,1.52-.01,2.28-.02v-111.99c-1.76.12-3.53.21-5.32.21Z"/>
      <path class="cls-1" d="m178.15,239.73v-.91c0-.96-.78-1.74-1.74-1.74h-5.08c-.96,0-1.74.78-1.74,1.74v1.04c1.08.05,2.15.08,3.24.08,1.79,0,3.56-.09,5.32-.21Z"/>
      <path class="cls-1" d="m226.58,165.18c0-29.63-24.11-53.74-53.74-53.74s-53.74,24.11-53.74,53.74c0,1.59,1.29,2.89,2.89,2.89s2.89-1.29,2.89-2.89c0-26.45,21.52-47.97,47.97-47.97,9.84,0,19,2.98,26.63,8.09,4.89-.79,10.3,1.31,13.82,5.87,3.11,4.03,3.99,9,2.78,13.22,3.04,6.29,4.74,13.34,4.74,20.78,0,26.45-21.52,47.97-47.97,47.97-12.53,0-24.39-4.8-33.39-13.53-1.15-1.11-2.97-1.08-4.08.06-1.11,1.14-1.08,2.97.06,4.08,10.08,9.77,23.37,15.16,37.41,15.16,29.63,0,53.74-24.11,53.74-53.74Z"/>
      <path class="cls-1" d="m189.34,136.95c-4.85-2.76-10.35-4.24-16.06-4.24-17.91,0-32.47,14.57-32.47,32.47s14.57,32.47,32.47,32.47,32.47-14.57,32.47-32.47c0-.23-.03-.45-.09-.66-.76.57-1.7.92-2.72.92s-1.96-.35-2.72-.91c-.05.21-.09.43-.09.66,0,14.81-12.05,26.86-26.86,26.86s-26.86-12.05-26.86-26.86,12.05-26.86,26.86-26.86c6.8,0,13.25,2.53,18.23,7.14-1.6-2.69-2.31-5.67-2.17-8.51Z"/>
      <circle class="cls-1" cx="181.47" cy="155.35" r="10.08"/>
      <path class="cls-1" d="m146.78,253.24c.55-2.45,2.53-4.2,4.86-4.59-37.74-9.57-64.91-44.3-64.91-83.46,0-47.48,38.63-86.11,86.11-86.11s86.11,38.63,86.11,86.11c0,3.04,2.46,5.5,5.5,5.5s5.5-2.46,5.5-5.5c0-53.55-43.56-97.11-97.11-97.11s-97.11,43.56-97.11,97.11c0,22.18,7.67,43.86,21.6,61.07,13.2,16.3,31.47,27.96,51.66,33.07-1.8-1.38-2.74-3.72-2.21-6.08Z"/>
      <path class="cls-1" d="m148.99,259.32c.67.51,1.45.89,2.32,1.09.03,0,.06.01.09.02v-.51c-.81-.18-1.61-.39-2.41-.6Z"/>
      <path class="cls-1" d="m156.9,251.1h.23c2.8,0,5.08,2.16,5.31,4.91.35-3.11-1.76-6.01-4.89-6.57-1.21-.22-2.42-.46-3.6-.73-.78-.18-1.57-.19-2.31-.06.73.19,1.46.38,2.2.55,1.26.28,2.31.98,3.06,1.91Z"/>
      <path class="cls-1" d="m151.4,256.45c0-2.96,2.4-5.35,5.35-5.35h.15c-.75-.93-1.81-1.63-3.06-1.91-.74-.17-1.47-.36-2.2-.55-2.33.39-4.31,2.15-4.86,4.59-.53,2.36.41,4.7,2.21,6.08.8.2,1.6.42,2.41.6v-3.47Z"/>
      <path class="cls-1" d="m162.44,256c-.01.13-.03.26-.05.4-.52,2.9-3.05,4.94-5.9,4.94-.35,0-.71-.03-1.07-.1-1.35-.24-2.7-.52-4.01-.81v89.61c3.66.51,7.35.92,11.08,1.2v-94.79c0-.15-.03-.3-.04-.45Z"/>
      <path class="cls-1" d="m156.49,261.34c2.85,0,5.37-2.04,5.9-4.94.02-.13.04-.27.05-.4-.23-2.74-2.5-4.91-5.31-4.91h-.23c1.02,1.26,1.48,2.96,1.09,4.67-.58,2.56-2.85,4.29-5.36,4.29-.4,0-.81-.04-1.21-.13,0,0-.01,0-.02,0v.51c1.31.29,2.66.57,4.01.81.36.07.72.1,1.07.1Z"/>
      <path class="cls-1" d="m151.4,256.45v3.47s.01,0,.02,0c.41.09.81.13,1.21.13,2.52,0,4.79-1.74,5.36-4.29.38-1.71-.07-3.4-1.09-4.67h-.15c-2.96,0-5.35,2.4-5.35,5.35Z"/>
      <path class="cls-1" d="m202.95,162.37c1.32,0,2.42.92,2.72,2.15,1.12-.83,1.86-2.16,1.86-3.66,0-2.53-2.05-4.58-4.58-4.58s-4.58,2.05-4.58,4.58c0,1.51.74,2.83,1.86,3.67.3-1.23,1.4-2.15,2.72-2.15Z"/>
      <path class="cls-1" d="m205.67,164.52c-.3-1.23-1.4-2.15-2.72-2.15s-2.42.92-2.72,2.15c.76.57,1.7.91,2.72.91s1.96-.35,2.72-.92Z"/>
      <path class="cls-1" d="m321.09,275.1c-.72,1.05-1.45,2.1-2.19,3.13l2.18,2.18c10.85,10.85,10.85,28.6,0,39.44l-.68.68c-.79.79-1.63,1.52-2.49,2.2-3.55,3.19-7.99,5.1-12.76,5.48-8.32,1.25-17.11-1.31-23.48-7.68l-2.29-2.46c-2.13,1.55-4.3,3.05-6.49,4.51l6.79,7.3.14.15c6.26,6.26,14.62,9.71,23.53,9.71s17.27-3.45,23.53-9.71l.68-.68c13.17-13.17,13.17-34.6,0-47.77l-6.47-6.47Z"/>
      <path class="cls-1" d="m273.99,235.31c-1.1.93-2.44,1.39-3.77,1.39-1.66,0-3.3-.7-4.46-2.06-2.09-2.46-1.78-6.15.68-8.23l3.22-2.73-7.19-7.19c-2.23-2.23-5.85-2.23-8.09,0-2.23,2.23-2.23,5.85,0,8.09l65.08,65.08c8.71,8.71,8.71,22.89,0,31.6l-.68.68c-.28.28-.58.53-.88.79.86-.68,1.7-1.4,2.49-2.2l.68-.68c10.85-10.85,10.85-28.6,0-39.44l-2.18-2.18c.74-1.03,1.47-2.08,2.19-3.13l-43.14-43.14-3.96,3.35Z"/>
      <path class="cls-1" d="m281.67,320.53c6.37,6.37,15.16,8.93,23.48,7.68-.6.05-1.2.09-1.8.09-5.82,0-11.28-2.23-15.37-6.29l-65.24-70.1c-1.18-1.25-2.84-1.97-4.58-1.95l-27.26.22c-3.41.02-6.18,2.81-6.18,6.22v59.59c0,3.16,2.56,5.72,5.72,5.72s5.72-2.56,5.72-5.72v-54.42l19.8-.16,56.93,61.17c2.2-1.46,4.37-2.96,6.49-4.51l2.29,2.46Zm-90.7-58.93h.01-.01Z"/>
      <path class="cls-1" d="m284.4,226.49h47.39c3.23,0,5.84-2.61,5.84-5.84s-2.61-5.84-5.84-5.84h-51.67l-10.45,8.86,8.29,8.29,6.45-5.47Z"/>
      <path class="cls-1" d="m265.76,234.63c1.16,1.36,2.8,2.06,4.46,2.06,1.33,0,2.68-.46,3.77-1.39l3.96-3.35-8.29-8.29-3.22,2.73c-2.46,2.09-2.76,5.77-.68,8.23Z"/>
      <path class="cls-1" d="m328.12,235.81h-24.76c-2.28,0-4.13,1.85-4.13,4.13s1.85,4.13,4.13,4.13h24.76c2.28,0,4.13-1.85,4.13-4.13s-1.85-4.13-4.13-4.13Zm-24.76,4.13h24.76-24.76Z"/>
      <path class="cls-1" d="m199.46,125.3c-1.94.31-3.79,1.06-5.41,2.31-2.94,2.27-4.52,5.69-4.7,9.34,2.35,1.34,4.56,2.98,6.55,4.91,1.11,1.08,1.14,2.86.06,3.97-1.08,1.11-2.86,1.14-3.97.06-.15-.15-.31-.29-.47-.43.34.57.7,1.12,1.11,1.66,4.92,6.37,13.53,7.97,19.23,3.56,2.1-1.62,3.51-3.83,4.21-6.29-3.74-7.75-9.51-14.34-16.6-19.09Z"/>
      <path class="cls-1" d="m213.28,131.18c-3.52-4.56-8.93-6.66-13.82-5.87,7.1,4.75,12.86,11.35,16.6,19.09,1.21-4.22.33-9.19-2.78-13.22Z"/>
      <path class="cls-1" d="m195.95,145.84c1.08-1.11,1.05-2.89-.06-3.97-1.99-1.93-4.19-3.57-6.55-4.91-.14,2.84.57,5.82,2.17,8.51.16.14.32.29.47.43,1.11,1.08,2.89,1.05,3.97-.06Z"/>
      <path class="cls-1" d="m262.8,186.8h16.24c1.59,0,2.89-1.29,2.89-2.89s-1.29-2.89-2.89-2.89h-16.24c-1.59,0-2.89,1.29-2.89,2.89s1.29,2.89,2.89,2.89Z"/>
      <path class="cls-1" d="m260.7,202.4h52.74c1.59,0,2.89-1.29,2.89-2.89s-1.29-2.89-2.89-2.89h-52.74c-1.59,0-2.89,1.29-2.89,2.89s1.29,2.89,2.89,2.89Z"/>
      <path class="cls-1" d="m298.63,181.22c-1.49,0-2.69,1.21-2.69,2.69s1.21,2.69,2.69,2.69h12.12c1.49,0,2.69-1.21,2.69-2.69s-1.21-2.69-2.69-2.69h-12.12Z"/>
      <path class="cls-1" d="m328.78,197.22h-.35c-1.49,0-2.69,1.21-2.69,2.69s1.21,2.69,2.69,2.69h.35c1.49,0,2.69-1.21,2.69-2.69s-1.21-2.69-2.69-2.69Z"/>
      <path class="cls-1" d="m205.03,321.72c0,5.35,4.35,9.7,9.7,9.7s9.7-4.35,9.7-9.7-4.35-9.7-9.7-9.7-9.7,4.35-9.7,9.7Zm14.4,0c0,2.59-2.11,4.7-4.7,4.7s-4.7-2.11-4.7-4.7,2.11-4.7,4.7-4.7,4.7,2.11,4.7,4.7Z"/>
      <path class="cls-1" d="m309.1,165.79c7.17,0,13-5.83,13-13s-5.83-13-13-13-13,5.83-13,13,5.83,13,13,13Zm0-19.29c3.47,0,6.3,2.82,6.3,6.3s-2.82,6.3-6.3,6.3-6.3-2.82-6.3-6.3,2.83-6.3,6.3-6.3Z"/>
      <path class="cls-1" d="m271.22,71.71c0-8.93-7.26-16.19-16.19-16.19s-16.19,7.26-16.19,16.19,7.26,16.19,16.19,16.19,16.19-7.26,16.19-16.19Zm-16.19,11.12c-6.13,0-11.12-4.99-11.12-11.12s4.99-11.12,11.12-11.12,11.12,4.99,11.12,11.12-4.99,11.12-11.12,11.12Z"/>
      <path class="cls-1" d="m242.94,248.65c-1.17-1.17-3.07-1.17-4.24,0-1.17,1.17-1.17,3.07,0,4.24l60.21,60.21c.59.59,1.35.88,2.12.88s1.54-.29,2.12-.88c1.17-1.17,1.17-3.07,0-4.24l-60.21-60.21Z"/>
      <path class="cls-1" d="m308.63,302.47c.59.59,1.35.88,2.12.88s1.54-.29,2.12-.88c1.17-1.17,1.17-3.07,0-4.24l-70.15-70.15c-1.17-1.17-3.07-1.17-4.24,0-1.17,1.17-1.17,3.07,0,4.24l70.15,70.15Z"/>
      <path class="cls-1" d="m103.84,297.04c-5.35,0-9.7,4.35-9.7,9.7s4.35,9.7,9.7,9.7,9.7-4.35,9.7-9.7-4.35-9.7-9.7-9.7Zm0,14.4c-2.59,0-4.7-2.11-4.7-4.7s2.11-4.7,4.7-4.7,4.7,2.11,4.7,4.7-2.11,4.7-4.7,4.7Z"/>
      <path class="cls-1" d="m310.12,128.87c4.41,0,7.99-3.59,7.99-7.99s-3.59-7.99-7.99-7.99-7.99,3.59-7.99,7.99,3.59,7.99,7.99,7.99Zm0-11.87c2.14,0,3.87,1.74,3.87,3.87s-1.74,3.87-3.87,3.87-3.87-1.74-3.87-3.87,1.74-3.87,3.87-3.87Z"/>
      <path class="cls-1" d="m281.15,85.37c0,4.93,4.01,8.94,8.94,8.94s8.94-4.01,8.94-8.94-4.01-8.94-8.94-8.94-8.94,4.01-8.94,8.94Zm13.27,0c0,2.39-1.94,4.33-4.33,4.33s-4.33-1.94-4.33-4.33,1.94-4.33,4.33-4.33,4.33,1.94,4.33,4.33Z"/>
    </g>
  </g>
</svg>